<svg width="84" height="84" viewBox="0 0 84 84" fill="none" xmlns="http://www.w3.org/2000/svg">
<circle cx="42" cy="42" r="42" fill="url(#paint0_linear_49_3112)"/>
<path d="M53 61V57C53 54.8783 52.1571 52.8434 50.6569 51.3431C49.1566 49.8429 47.1217 49 45 49H29C26.8783 49 24.8434 49.8429 23.3431 51.3431C21.8429 52.8434 21 54.8783 21 57V61M65 61V57C64.9987 55.2275 64.4087 53.5055 63.3227 52.1046C62.2368 50.7037 60.7163 49.7031 59 49.26M51 25.26C52.7208 25.7006 54.2461 26.7014 55.3353 28.1046C56.4245 29.5078 57.0157 31.2337 57.0157 33.01C57.0157 34.7863 56.4245 36.5122 55.3353 37.9154C54.2461 39.3186 52.7208 40.3194 51 40.76M45 33C45 37.4183 41.4183 41 37 41C32.5817 41 29 37.4183 29 33C29 28.5817 32.5817 25 37 25C41.4183 25 45 28.5817 45 33Z" stroke="#00AC4F" stroke-width="4" stroke-linecap="round" stroke-linejoin="round"/>
<defs>
<linearGradient id="paint0_linear_49_3112" x1="74.55" y1="2.14197e-06" x2="42" y2="84" gradientUnits="userSpaceOnUse">
<stop stop-color="#D3FFE7"/>
<stop offset="1" stop-color="#EFFFF6"/>
</linearGradient>
</defs>
</svg>
