<svg width="84" height="84" viewBox="0 0 84 84" fill="none" xmlns="http://www.w3.org/2000/svg">
<circle cx="42" cy="42" r="42" fill="url(#paint0_linear_49_3147)"/>
<path d="M51 36.8L33 26.42M24.54 31.92L42 42.0201L59.46 31.92M42 62.16V42M60 50V34C59.9993 33.2986 59.8141 32.6097 59.4631 32.0024C59.112 31.3951 58.6075 30.8908 58 30.54L44 22.54C43.3919 22.189 42.7021 22.0042 42 22.0042C41.2979 22.0042 40.6081 22.189 40 22.54L26 30.54C25.3925 30.8908 24.888 31.3951 24.5369 32.0024C24.1859 32.6097 24.0007 33.2986 24 34V50C24.0007 50.7015 24.1859 51.3904 24.5369 51.9977C24.888 52.605 25.3925 53.1093 26 53.46L40 61.46C40.6081 61.8111 41.2979 61.9959 42 61.9959C42.7021 61.9959 43.3919 61.8111 44 61.46L58 53.46C58.6075 53.1093 59.112 52.605 59.4631 51.9977C59.8141 51.3904 59.9993 50.7015 60 50Z" stroke="#00AC4F" stroke-width="4" stroke-linecap="round" stroke-linejoin="round"/>
<defs>
<linearGradient id="paint0_linear_49_3147" x1="74.55" y1="2.14197e-06" x2="42" y2="84" gradientUnits="userSpaceOnUse">
<stop stop-color="#D3FFE7"/>
<stop offset="1" stop-color="#EFFFF6"/>
</linearGradient>
</defs>
</svg>
