<svg width="960" height="297" viewBox="0 0 960 297" fill="none" xmlns="http://www.w3.org/2000/svg">
<rect x="106" width="746.667" height="297" rx="30" fill="#D9D9D9" fill-opacity="0.55"/>
<g filter="url(#filter0_dd_423_4593)">
<path d="M278.774 82C279.521 82.2133 280.481 82.3733 281.654 82.48C282.827 82.5333 283.947 82.56 285.014 82.56C287.147 82.56 288.907 82.1333 290.294 81.28C291.734 80.3733 292.454 78.9867 292.454 77.12C292.454 75.36 291.867 74.1067 290.694 73.36C289.521 72.6133 287.734 72.24 285.334 72.24H278.774V82ZM278.774 62.48H284.614C286.907 62.48 288.561 62.0533 289.574 61.2C290.641 60.3467 291.174 59.0933 291.174 57.44C291.174 56 290.561 54.8533 289.334 54C288.161 53.1467 286.374 52.72 283.974 52.72C283.174 52.72 282.241 52.7467 281.174 52.8C280.161 52.8533 279.361 52.9333 278.774 53.04V62.48ZM283.974 93.28C283.067 93.28 282.001 93.2533 280.774 93.2C279.547 93.1467 278.267 93.04 276.934 92.88C275.654 92.72 274.374 92.5067 273.094 92.24C271.814 92.0267 270.641 91.7067 269.574 91.28C266.641 90.16 265.174 88.2133 265.174 85.44V48.08C265.174 46.96 265.467 46.1067 266.054 45.52C266.694 44.88 267.547 44.3733 268.614 44C270.427 43.36 272.694 42.9067 275.414 42.64C278.134 42.32 280.934 42.16 283.814 42.16C290.641 42.16 295.894 43.3067 299.574 45.6C303.254 47.8933 305.094 51.44 305.094 56.24C305.094 58.64 304.401 60.72 303.014 62.48C301.627 64.1867 299.761 65.44 297.414 66.24C300.081 66.9867 302.294 68.3467 304.054 70.32C305.867 72.2933 306.774 74.7733 306.774 77.76C306.774 83.04 304.801 86.96 300.854 89.52C296.961 92.0267 291.334 93.28 283.974 93.28ZM325.025 44.96C325.932 44.4267 327.292 43.92 329.105 43.44C330.972 42.96 332.839 42.72 334.705 42.72C337.372 42.72 339.719 43.12 341.745 43.92C343.825 44.6667 345.159 45.8667 345.745 47.52C346.705 50.2933 347.745 53.52 348.865 57.2C349.985 60.88 351.105 64.6933 352.225 68.64C353.345 72.5333 354.439 76.4 355.505 80.24C356.572 84.0267 357.505 87.3867 358.305 90.32C357.665 91.0667 356.705 91.6533 355.425 92.08C354.145 92.56 352.625 92.8 350.865 92.8C349.585 92.8 348.492 92.6933 347.585 92.48C346.732 92.2667 346.012 91.9467 345.425 91.52C344.892 91.0933 344.439 90.5333 344.065 89.84C343.745 89.1467 343.452 88.3467 343.185 87.44L341.745 81.92H327.265C326.839 83.52 326.412 85.1733 325.985 86.88C325.559 88.5867 325.132 90.24 324.705 91.84C323.959 92.1067 323.159 92.32 322.305 92.48C321.505 92.6933 320.519 92.8 319.345 92.8C316.625 92.8 314.599 92.3467 313.265 91.44C311.985 90.48 311.345 89.1733 311.345 87.52C311.345 86.7733 311.452 86.0267 311.665 85.28C311.879 84.5333 312.119 83.6533 312.385 82.64C312.759 81.2 313.265 79.4133 313.905 77.28C314.599 75.1467 315.345 72.8533 316.145 70.4C316.945 67.8933 317.799 65.3333 318.705 62.72C319.612 60.1067 320.465 57.6533 321.265 55.36C322.065 53.0133 322.785 50.9333 323.425 49.12C324.119 47.3067 324.652 45.92 325.025 44.96ZM334.625 55.28C333.879 57.52 333.025 60.0267 332.065 62.8C331.159 65.52 330.332 68.2933 329.585 71.12H339.505C338.759 68.24 337.985 65.44 337.185 62.72C336.439 59.9467 335.745 57.4667 335.105 55.28H334.625ZM388.8 53.28C384.694 53.28 381.547 54.5333 379.36 57.04C377.174 59.5467 376.08 63.0933 376.08 67.68C376.08 72.32 377.28 75.8933 379.68 78.4C382.134 80.9067 385.414 82.16 389.52 82.16C391.707 82.16 393.547 81.8667 395.04 81.28C396.587 80.6933 398.054 80.0267 399.44 79.28C400.347 80.0267 401.04 80.9333 401.52 82C402.054 83.0133 402.32 84.2133 402.32 85.6C402.32 87.7867 401.094 89.6533 398.64 91.2C396.24 92.6933 392.56 93.44 387.6 93.44C384.027 93.44 380.667 92.9333 377.52 91.92C374.374 90.9067 371.627 89.36 369.28 87.28C366.934 85.1467 365.067 82.48 363.68 79.28C362.347 76.0267 361.68 72.16 361.68 67.68C361.68 63.52 362.32 59.8667 363.6 56.72C364.934 53.52 366.72 50.8267 368.96 48.64C371.254 46.4533 373.92 44.8 376.96 43.68C380 42.56 383.254 42 386.72 42C391.627 42 395.414 42.8 398.08 44.4C400.8 46 402.16 48.0533 402.16 50.56C402.16 51.9467 401.814 53.1467 401.12 54.16C400.427 55.1733 399.627 55.9733 398.72 56.56C397.334 55.6533 395.84 54.88 394.24 54.24C392.694 53.6 390.88 53.28 388.8 53.28ZM453.143 91.68C452.557 91.84 451.623 92 450.343 92.16C449.117 92.32 447.89 92.4 446.663 92.4C445.437 92.4 444.343 92.2933 443.383 92.08C442.477 91.92 441.703 91.6 441.063 91.12C440.423 90.64 439.943 89.9733 439.623 89.12C439.303 88.2667 439.143 87.1467 439.143 85.76V73.28H423.783V91.68C423.197 91.84 422.263 92 420.983 92.16C419.757 92.32 418.53 92.4 417.303 92.4C416.077 92.4 414.983 92.2933 414.023 92.08C413.117 91.92 412.343 91.6 411.703 91.12C411.063 90.64 410.583 89.9733 410.263 89.12C409.943 88.2667 409.783 87.1467 409.783 85.76V43.52C410.37 43.4133 411.303 43.28 412.583 43.12C413.863 42.9067 415.09 42.8 416.263 42.8C417.49 42.8 418.557 42.9067 419.463 43.12C420.423 43.28 421.223 43.6 421.863 44.08C422.503 44.56 422.983 45.2267 423.303 46.08C423.623 46.9333 423.783 48.0533 423.783 49.44V62.24H439.143V43.52C439.73 43.4133 440.663 43.28 441.943 43.12C443.223 42.9067 444.45 42.8 445.623 42.8C446.85 42.8 447.917 42.9067 448.823 43.12C449.783 43.28 450.583 43.6 451.223 44.08C451.863 44.56 452.343 45.2267 452.663 46.08C452.983 46.9333 453.143 48.0533 453.143 49.44V91.68ZM493.629 74V91.68C493.042 91.84 492.109 92 490.829 92.16C489.549 92.32 488.296 92.4 487.069 92.4C485.842 92.4 484.749 92.2933 483.789 92.08C482.882 91.92 482.109 91.6 481.469 91.12C480.829 90.64 480.349 89.9733 480.029 89.12C479.709 88.2667 479.549 87.1467 479.549 85.76V43.52C480.136 43.4133 481.069 43.28 482.349 43.12C483.629 42.9067 484.856 42.8 486.029 42.8C487.256 42.8 488.322 42.9067 489.229 43.12C490.189 43.28 490.989 43.6 491.629 44.08C492.269 44.56 492.749 45.2267 493.069 46.08C493.389 46.9333 493.549 48.0533 493.549 49.44V62.16L510.189 43.04C513.816 43.04 516.402 43.7333 517.949 45.12C519.549 46.4533 520.349 48.0533 520.349 49.92C520.349 51.3067 520.002 52.6133 519.309 53.84C518.616 55.0667 517.496 56.4533 515.949 58L505.949 68C507.282 69.4933 508.669 71.04 510.109 72.64C511.602 74.24 513.042 75.8133 514.429 77.36C515.869 78.8533 517.229 80.2933 518.509 81.68C519.842 83.0667 520.989 84.2667 521.949 85.28C521.949 86.4533 521.736 87.4933 521.309 88.4C520.882 89.3067 520.296 90.08 519.549 90.72C518.856 91.36 518.056 91.84 517.149 92.16C516.242 92.48 515.282 92.64 514.269 92.64C512.082 92.64 510.296 92.1067 508.909 91.04C507.522 89.92 506.189 88.6133 504.909 87.12L493.629 74ZM572.128 91.68C571.541 91.84 570.608 92 569.328 92.16C568.101 92.32 566.874 92.4 565.648 92.4C564.421 92.4 563.328 92.2933 562.368 92.08C561.461 91.92 560.688 91.6 560.048 91.12C559.408 90.64 558.928 89.9733 558.608 89.12C558.288 88.2667 558.128 87.1467 558.128 85.76V73.28H542.768V91.68C542.181 91.84 541.248 92 539.968 92.16C538.741 92.32 537.514 92.4 536.288 92.4C535.061 92.4 533.968 92.2933 533.008 92.08C532.101 91.92 531.328 91.6 530.688 91.12C530.048 90.64 529.568 89.9733 529.248 89.12C528.928 88.2667 528.768 87.1467 528.768 85.76V43.52C529.354 43.4133 530.288 43.28 531.568 43.12C532.848 42.9067 534.074 42.8 535.248 42.8C536.474 42.8 537.541 42.9067 538.448 43.12C539.408 43.28 540.208 43.6 540.848 44.08C541.488 44.56 541.968 45.2267 542.288 46.08C542.608 46.9333 542.768 48.0533 542.768 49.44V62.24H558.128V43.52C558.714 43.4133 559.648 43.28 560.928 43.12C562.208 42.9067 563.434 42.8 564.608 42.8C565.834 42.8 566.901 42.9067 567.808 43.12C568.768 43.28 569.568 43.6 570.208 44.08C570.848 44.56 571.328 45.2267 571.648 46.08C571.968 46.9333 572.128 48.0533 572.128 49.44V91.68ZM580.118 67.68C580.118 63.52 580.758 59.84 582.038 56.64C583.371 53.44 585.158 50.7733 587.398 48.64C589.691 46.4533 592.358 44.8 595.398 43.68C598.491 42.56 601.824 42 605.398 42C608.971 42 612.278 42.56 615.318 43.68C618.411 44.8 621.104 46.4533 623.398 48.64C625.691 50.7733 627.478 53.44 628.758 56.64C630.091 59.84 630.758 63.52 630.758 67.68C630.758 71.84 630.118 75.5467 628.838 78.8C627.558 82 625.771 84.6933 623.478 86.88C621.238 89.0133 618.571 90.64 615.478 91.76C612.384 92.88 609.024 93.44 605.398 93.44C601.771 93.44 598.411 92.88 595.318 91.76C592.224 90.5867 589.558 88.9067 587.318 86.72C585.078 84.5333 583.318 81.84 582.038 78.64C580.758 75.44 580.118 71.7867 580.118 67.68ZM594.518 67.68C594.518 72.5333 595.504 76.16 597.478 78.56C599.451 80.96 602.091 82.16 605.398 82.16C608.758 82.16 611.424 80.96 613.398 78.56C615.371 76.16 616.358 72.5333 616.358 67.68C616.358 62.88 615.371 59.28 613.398 56.88C611.478 54.48 608.838 53.28 605.478 53.28C602.171 53.28 599.504 54.48 597.478 56.88C595.504 59.2267 594.518 62.8267 594.518 67.68ZM648.541 44.96C649.448 44.4267 650.808 43.92 652.621 43.44C654.488 42.96 656.354 42.72 658.221 42.72C660.888 42.72 663.234 43.12 665.261 43.92C667.341 44.6667 668.674 45.8667 669.261 47.52C670.221 50.2933 671.261 53.52 672.381 57.2C673.501 60.88 674.621 64.6933 675.741 68.64C676.861 72.5333 677.954 76.4 679.021 80.24C680.088 84.0267 681.021 87.3867 681.821 90.32C681.181 91.0667 680.221 91.6533 678.941 92.08C677.661 92.56 676.141 92.8 674.381 92.8C673.101 92.8 672.008 92.6933 671.101 92.48C670.248 92.2667 669.528 91.9467 668.941 91.52C668.408 91.0933 667.954 90.5333 667.581 89.84C667.261 89.1467 666.968 88.3467 666.701 87.44L665.261 81.92H650.781C650.354 83.52 649.928 85.1733 649.501 86.88C649.074 88.5867 648.648 90.24 648.221 91.84C647.474 92.1067 646.674 92.32 645.821 92.48C645.021 92.6933 644.034 92.8 642.861 92.8C640.141 92.8 638.114 92.3467 636.781 91.44C635.501 90.48 634.861 89.1733 634.861 87.52C634.861 86.7733 634.968 86.0267 635.181 85.28C635.394 84.5333 635.634 83.6533 635.901 82.64C636.274 81.2 636.781 79.4133 637.421 77.28C638.114 75.1467 638.861 72.8533 639.661 70.4C640.461 67.8933 641.314 65.3333 642.221 62.72C643.128 60.1067 643.981 57.6533 644.781 55.36C645.581 53.0133 646.301 50.9333 646.941 49.12C647.634 47.3067 648.168 45.92 648.541 44.96ZM658.141 55.28C657.394 57.52 656.541 60.0267 655.581 62.8C654.674 65.52 653.848 68.2933 653.101 71.12H663.021C662.274 68.24 661.501 65.44 660.701 62.72C659.954 59.9467 659.261 57.4667 658.621 55.28H658.141ZM190.106 193.72C187.759 192.92 185.626 192.12 183.706 191.32C181.786 190.467 180.133 189.453 178.746 188.28C177.359 187.107 176.266 185.72 175.466 184.12C174.719 182.467 174.346 180.467 174.346 178.12C174.346 173.587 176.079 169.96 179.546 167.24C183.066 164.52 187.973 163.16 194.266 163.16C196.559 163.16 198.693 163.32 200.666 163.64C202.639 163.96 204.319 164.467 205.706 165.16C207.146 165.8 208.266 166.653 209.066 167.72C209.866 168.733 210.266 169.933 210.266 171.32C210.266 172.707 209.946 173.907 209.306 174.92C208.666 175.88 207.893 176.707 206.986 177.4C205.813 176.653 204.239 176.013 202.266 175.48C200.293 174.893 198.133 174.6 195.786 174.6C193.386 174.6 191.626 174.947 190.506 175.64C189.386 176.28 188.826 177.107 188.826 178.12C188.826 178.92 189.173 179.587 189.866 180.12C190.559 180.6 191.599 181.053 192.986 181.48L197.226 182.84C202.239 184.44 206.079 186.493 208.746 189C211.466 191.453 212.826 194.813 212.826 199.08C212.826 203.613 211.039 207.293 207.466 210.12C203.893 212.893 198.639 214.28 191.706 214.28C189.253 214.28 186.959 214.067 184.826 213.64C182.746 213.267 180.906 212.707 179.306 211.96C177.759 211.16 176.533 210.2 175.626 209.08C174.773 207.907 174.346 206.573 174.346 205.08C174.346 203.533 174.799 202.227 175.706 201.16C176.613 200.04 177.599 199.187 178.666 198.6C180.159 199.773 181.973 200.787 184.106 201.64C186.293 202.493 188.666 202.92 191.226 202.92C193.839 202.92 195.679 202.52 196.746 201.72C197.813 200.92 198.346 199.987 198.346 198.92C198.346 197.853 197.919 197.053 197.066 196.52C196.213 195.933 195.013 195.373 193.466 194.84L190.106 193.72ZM254.241 201.08C253.548 201.667 252.641 202.147 251.521 202.52C250.454 202.84 249.201 203 247.761 203C245.841 203 244.241 202.76 242.961 202.28C241.734 201.8 240.934 200.973 240.561 199.8C239.068 195.107 237.841 191.32 236.881 188.44C235.921 185.507 235.174 182.947 234.641 180.76H234.241C234.081 183.907 233.948 186.787 233.841 189.4C233.788 191.96 233.734 194.467 233.681 196.92C233.681 199.373 233.628 201.853 233.521 204.36C233.468 206.867 233.361 209.64 233.201 212.68C232.508 212.947 231.601 213.16 230.481 213.32C229.361 213.533 228.241 213.64 227.121 213.64C224.774 213.64 222.934 213.267 221.601 212.52C220.321 211.773 219.681 210.413 219.681 208.44L222.001 167.64C222.428 166.947 223.361 166.2 224.801 165.4C226.241 164.6 228.268 164.2 230.881 164.2C233.708 164.2 235.921 164.653 237.521 165.56C239.121 166.413 240.294 167.827 241.041 169.8C241.521 171.08 242.028 172.547 242.561 174.2C243.148 175.853 243.708 177.56 244.241 179.32C244.828 181.08 245.388 182.84 245.921 184.6C246.454 186.307 246.934 187.853 247.361 189.24H247.761C249.041 184.76 250.321 180.44 251.601 176.28C252.881 172.067 254.054 168.547 255.121 165.72C255.921 165.293 256.934 164.947 258.161 164.68C259.441 164.36 260.854 164.2 262.401 164.2C265.014 164.2 267.148 164.6 268.801 165.4C270.454 166.147 271.414 167.24 271.681 168.68C271.894 169.747 272.108 171.4 272.321 173.64C272.588 175.827 272.854 178.307 273.121 181.08C273.388 183.853 273.654 186.787 273.921 189.88C274.188 192.973 274.428 195.96 274.641 198.84C274.908 201.667 275.121 204.28 275.281 206.68C275.441 209.027 275.548 210.84 275.601 212.12C274.694 212.653 273.734 213.027 272.721 213.24C271.761 213.507 270.508 213.64 268.961 213.64C266.934 213.64 265.228 213.293 263.841 212.6C262.454 211.907 261.708 210.547 261.601 208.52C261.281 202.707 261.068 197.48 260.961 192.84C260.908 188.2 260.801 184.307 260.641 181.16H260.241C259.708 183.24 258.934 185.853 257.921 189C256.908 192.147 255.681 196.173 254.241 201.08ZM295.181 165.96C296.088 165.427 297.448 164.92 299.261 164.44C301.128 163.96 302.995 163.72 304.861 163.72C307.528 163.72 309.875 164.12 311.901 164.92C313.981 165.667 315.315 166.867 315.901 168.52C316.861 171.293 317.901 174.52 319.021 178.2C320.141 181.88 321.261 185.693 322.381 189.64C323.501 193.533 324.595 197.4 325.661 201.24C326.728 205.027 327.661 208.387 328.461 211.32C327.821 212.067 326.861 212.653 325.581 213.08C324.301 213.56 322.781 213.8 321.021 213.8C319.741 213.8 318.648 213.693 317.741 213.48C316.888 213.267 316.168 212.947 315.581 212.52C315.048 212.093 314.595 211.533 314.221 210.84C313.901 210.147 313.608 209.347 313.341 208.44L311.901 202.92H297.421C296.995 204.52 296.568 206.173 296.141 207.88C295.715 209.587 295.288 211.24 294.861 212.84C294.115 213.107 293.315 213.32 292.461 213.48C291.661 213.693 290.675 213.8 289.501 213.8C286.781 213.8 284.755 213.347 283.421 212.44C282.141 211.48 281.501 210.173 281.501 208.52C281.501 207.773 281.608 207.027 281.821 206.28C282.035 205.533 282.275 204.653 282.541 203.64C282.915 202.2 283.421 200.413 284.061 198.28C284.755 196.147 285.501 193.853 286.301 191.4C287.101 188.893 287.955 186.333 288.861 183.72C289.768 181.107 290.621 178.653 291.421 176.36C292.221 174.013 292.941 171.933 293.581 170.12C294.275 168.307 294.808 166.92 295.181 165.96ZM304.781 176.28C304.035 178.52 303.181 181.027 302.221 183.8C301.315 186.52 300.488 189.293 299.741 192.12H309.661C308.915 189.24 308.141 186.44 307.341 183.72C306.595 180.947 305.901 178.467 305.261 176.28H304.781ZM348.938 197.32V212.68C348.351 212.84 347.418 213 346.138 213.16C344.911 213.32 343.684 213.4 342.458 213.4C341.231 213.4 340.138 213.293 339.178 213.08C338.271 212.92 337.498 212.6 336.858 212.12C336.271 211.64 335.818 210.973 335.498 210.12C335.178 209.267 335.018 208.147 335.018 206.76V169.08C335.018 167.96 335.311 167.107 335.898 166.52C336.538 165.88 337.391 165.373 338.458 165C340.271 164.36 342.378 163.907 344.778 163.64C347.178 163.32 349.738 163.16 352.458 163.16C359.818 163.16 365.364 164.707 369.098 167.8C372.831 170.893 374.698 175.08 374.698 180.36C374.698 183.667 373.844 186.493 372.138 188.84C370.431 191.187 368.404 193 366.058 194.28C367.978 196.893 369.871 199.347 371.738 201.64C373.604 203.933 375.071 206.013 376.138 207.88C375.604 209.747 374.618 211.187 373.178 212.2C371.791 213.16 370.218 213.64 368.458 213.64C367.284 213.64 366.271 213.507 365.418 213.24C364.564 212.973 363.818 212.6 363.178 212.12C362.538 211.64 361.951 211.053 361.418 210.36C360.884 209.667 360.378 208.92 359.898 208.12L353.178 197.32H348.938ZM353.978 186.68C356.004 186.68 357.604 186.173 358.778 185.16C359.951 184.093 360.538 182.547 360.538 180.52C360.538 178.493 359.871 176.973 358.538 175.96C357.258 174.893 355.204 174.36 352.378 174.36C351.578 174.36 350.938 174.387 350.458 174.44C349.978 174.493 349.444 174.573 348.858 174.68V186.68H353.978ZM380.356 175.72C379.983 175.133 379.636 174.333 379.316 173.32C378.996 172.307 378.836 171.24 378.836 170.12C378.836 168.04 379.289 166.547 380.196 165.64C381.156 164.733 382.383 164.28 383.876 164.28H418.756C419.129 164.867 419.476 165.667 419.796 166.68C420.116 167.693 420.276 168.76 420.276 169.88C420.276 171.96 419.796 173.453 418.836 174.36C417.929 175.267 416.729 175.72 415.236 175.72H406.356V212.68C405.769 212.84 404.836 213 403.556 213.16C402.329 213.32 401.103 213.4 399.876 213.4C398.649 213.4 397.556 213.293 396.596 213.08C395.689 212.92 394.916 212.6 394.276 212.12C393.636 211.64 393.156 210.973 392.836 210.12C392.516 209.267 392.356 208.147 392.356 206.76V175.72H380.356ZM461.225 187C463.465 187 465.171 186.493 466.345 185.48C467.571 184.413 468.185 182.813 468.185 180.68C468.185 178.653 467.545 177.107 466.265 176.04C465.038 174.92 463.225 174.36 460.825 174.36C459.971 174.36 459.251 174.387 458.665 174.44C458.131 174.44 457.571 174.493 456.985 174.6V187H461.225ZM457.065 212.68C456.478 212.84 455.545 213 454.265 213.16C453.038 213.32 451.811 213.4 450.585 213.4C449.358 213.4 448.265 213.293 447.305 213.08C446.398 212.92 445.625 212.6 444.985 212.12C444.345 211.64 443.865 210.973 443.545 210.12C443.225 209.267 443.065 208.147 443.065 206.76V169.08C443.065 167.96 443.358 167.107 443.945 166.52C444.585 165.88 445.438 165.373 446.505 165C448.318 164.36 450.371 163.907 452.665 163.64C455.011 163.32 457.358 163.16 459.705 163.16C467.065 163.16 472.691 164.733 476.585 167.88C480.478 171.027 482.425 175.293 482.425 180.68C482.425 183.293 481.998 185.667 481.145 187.8C480.345 189.88 479.118 191.693 477.465 193.24C475.865 194.733 473.811 195.907 471.305 196.76C468.851 197.56 465.998 197.96 462.745 197.96H457.065V212.68ZM503.469 197.32V212.68C502.882 212.84 501.949 213 500.669 213.16C499.442 213.32 498.216 213.4 496.989 213.4C495.762 213.4 494.669 213.293 493.709 213.08C492.802 212.92 492.029 212.6 491.389 212.12C490.802 211.64 490.349 210.973 490.029 210.12C489.709 209.267 489.549 208.147 489.549 206.76V169.08C489.549 167.96 489.842 167.107 490.429 166.52C491.069 165.88 491.922 165.373 492.989 165C494.802 164.36 496.909 163.907 499.309 163.64C501.709 163.32 504.269 163.16 506.989 163.16C514.349 163.16 519.896 164.707 523.629 167.8C527.362 170.893 529.229 175.08 529.229 180.36C529.229 183.667 528.376 186.493 526.669 188.84C524.962 191.187 522.936 193 520.589 194.28C522.509 196.893 524.402 199.347 526.269 201.64C528.136 203.933 529.602 206.013 530.669 207.88C530.136 209.747 529.149 211.187 527.709 212.2C526.322 213.16 524.749 213.64 522.989 213.64C521.816 213.64 520.802 213.507 519.949 213.24C519.096 212.973 518.349 212.6 517.709 212.12C517.069 211.64 516.482 211.053 515.949 210.36C515.416 209.667 514.909 208.92 514.429 208.12L507.709 197.32H503.469ZM508.509 186.68C510.536 186.68 512.136 186.173 513.309 185.16C514.482 184.093 515.069 182.547 515.069 180.52C515.069 178.493 514.402 176.973 513.069 175.96C511.789 174.893 509.736 174.36 506.909 174.36C506.109 174.36 505.469 174.387 504.989 174.44C504.509 174.493 503.976 174.573 503.389 174.68V186.68H508.509ZM552.299 212.68C551.712 212.84 550.779 213 549.499 213.16C548.272 213.32 547.046 213.4 545.819 213.4C544.592 213.4 543.499 213.293 542.539 213.08C541.632 212.92 540.859 212.6 540.219 212.12C539.579 211.64 539.099 210.973 538.779 210.12C538.459 209.267 538.299 208.147 538.299 206.76V164.52C538.886 164.413 539.819 164.28 541.099 164.12C542.379 163.907 543.606 163.8 544.779 163.8C546.006 163.8 547.072 163.907 547.979 164.12C548.939 164.28 549.739 164.6 550.379 165.08C551.019 165.56 551.499 166.227 551.819 167.08C552.139 167.933 552.299 169.053 552.299 170.44V212.68ZM606.594 211.32C605.847 212.067 604.754 212.627 603.314 213C601.927 213.427 600.247 213.64 598.274 213.64C596.301 213.64 594.434 213.347 592.674 212.76C590.914 212.173 589.474 210.76 588.354 208.52L580.434 192.36C579.634 190.707 578.914 189.16 578.274 187.72C577.634 186.227 576.941 184.52 576.194 182.6L575.714 182.68C575.927 185.56 576.034 188.493 576.034 191.48C576.087 194.467 576.114 197.4 576.114 200.28V212.68C575.527 212.84 574.621 213 573.394 213.16C572.221 213.32 571.047 213.4 569.874 213.4C568.701 213.4 567.661 213.32 566.754 213.16C565.847 213 565.101 212.68 564.514 212.2C563.927 211.72 563.474 211.08 563.154 210.28C562.834 209.427 562.674 208.333 562.674 207V167C563.421 165.933 564.567 165.133 566.114 164.6C567.661 164.067 569.314 163.8 571.074 163.8C573.047 163.8 574.914 164.12 576.674 164.76C578.487 165.347 579.927 166.733 580.994 168.92L588.994 185.08C589.794 186.733 590.514 188.307 591.154 189.8C591.794 191.24 592.487 192.92 593.234 194.84L593.634 194.76C593.421 191.88 593.287 189 593.234 186.12C593.181 183.24 593.154 180.36 593.154 177.48V164.52C593.741 164.36 594.621 164.2 595.794 164.04C597.021 163.88 598.221 163.8 599.394 163.8C601.741 163.8 603.527 164.227 604.754 165.08C605.981 165.88 606.594 167.587 606.594 170.2V211.32ZM614.731 175.72C614.358 175.133 614.011 174.333 613.691 173.32C613.371 172.307 613.211 171.24 613.211 170.12C613.211 168.04 613.664 166.547 614.571 165.64C615.531 164.733 616.758 164.28 618.251 164.28H653.131C653.504 164.867 653.851 165.667 654.171 166.68C654.491 167.693 654.651 168.76 654.651 169.88C654.651 171.96 654.171 173.453 653.211 174.36C652.304 175.267 651.104 175.72 649.611 175.72H640.731V212.68C640.144 212.84 639.211 213 637.931 213.16C636.704 213.32 635.478 213.4 634.251 213.4C633.024 213.4 631.931 213.293 630.971 213.08C630.064 212.92 629.291 212.6 628.651 212.12C628.011 211.64 627.531 210.973 627.211 210.12C626.891 209.267 626.731 208.147 626.731 206.76V175.72H614.731ZM675.424 212.68C674.837 212.84 673.904 213 672.624 213.16C671.397 213.32 670.171 213.4 668.944 213.4C667.717 213.4 666.624 213.293 665.664 213.08C664.757 212.92 663.984 212.6 663.344 212.12C662.704 211.64 662.224 210.973 661.904 210.12C661.584 209.267 661.424 208.147 661.424 206.76V164.52C662.011 164.413 662.944 164.28 664.224 164.12C665.504 163.907 666.731 163.8 667.904 163.8C669.131 163.8 670.197 163.907 671.104 164.12C672.064 164.28 672.864 164.6 673.504 165.08C674.144 165.56 674.624 166.227 674.944 167.08C675.264 167.933 675.424 169.053 675.424 170.44V212.68ZM729.719 211.32C728.972 212.067 727.879 212.627 726.439 213C725.052 213.427 723.372 213.64 721.399 213.64C719.426 213.64 717.559 213.347 715.799 212.76C714.039 212.173 712.599 210.76 711.479 208.52L703.559 192.36C702.759 190.707 702.039 189.16 701.399 187.72C700.759 186.227 700.066 184.52 699.319 182.6L698.839 182.68C699.052 185.56 699.159 188.493 699.159 191.48C699.212 194.467 699.239 197.4 699.239 200.28V212.68C698.652 212.84 697.746 213 696.519 213.16C695.346 213.32 694.172 213.4 692.999 213.4C691.826 213.4 690.786 213.32 689.879 213.16C688.972 213 688.226 212.68 687.639 212.2C687.052 211.72 686.599 211.08 686.279 210.28C685.959 209.427 685.799 208.333 685.799 207V167C686.546 165.933 687.692 165.133 689.239 164.6C690.786 164.067 692.439 163.8 694.199 163.8C696.172 163.8 698.039 164.12 699.799 164.76C701.612 165.347 703.052 166.733 704.119 168.92L712.119 185.08C712.919 186.733 713.639 188.307 714.279 189.8C714.919 191.24 715.612 192.92 716.359 194.84L716.759 194.76C716.546 191.88 716.412 189 716.359 186.12C716.306 183.24 716.279 180.36 716.279 177.48V164.52C716.866 164.36 717.746 164.2 718.919 164.04C720.146 163.88 721.346 163.8 722.519 163.8C724.866 163.8 726.652 164.227 727.879 165.08C729.106 165.88 729.719 167.587 729.719 170.2V211.32ZM784.016 205.08C784.016 206.733 783.723 207.96 783.136 208.76C782.549 209.56 781.616 210.333 780.336 211.08C779.589 211.507 778.656 211.933 777.536 212.36C776.416 212.733 775.189 213.053 773.856 213.32C772.523 213.64 771.109 213.88 769.616 214.04C768.176 214.2 766.736 214.28 765.296 214.28C761.456 214.28 757.856 213.773 754.496 212.76C751.136 211.693 748.203 210.12 745.696 208.04C743.243 205.907 741.296 203.267 739.856 200.12C738.416 196.973 737.696 193.32 737.696 189.16C737.696 184.787 738.469 180.973 740.016 177.72C741.616 174.467 743.696 171.773 746.256 169.64C748.869 167.453 751.829 165.827 755.136 164.76C758.496 163.693 761.936 163.16 765.456 163.16C770.523 163.16 774.523 163.987 777.456 165.64C780.443 167.24 781.936 169.347 781.936 171.96C781.936 173.347 781.589 174.547 780.896 175.56C780.203 176.573 779.403 177.373 778.496 177.96C777.163 177.16 775.483 176.387 773.456 175.64C771.483 174.84 769.243 174.44 766.736 174.44C762.256 174.44 758.683 175.72 756.016 178.28C753.403 180.84 752.096 184.387 752.096 188.92C752.096 191.373 752.443 193.507 753.136 195.32C753.883 197.08 754.869 198.547 756.096 199.72C757.323 200.84 758.736 201.693 760.336 202.28C761.936 202.813 763.643 203.08 765.456 203.08C766.629 203.08 767.669 202.973 768.576 202.76C769.483 202.547 770.176 202.307 770.656 202.04V194.52H762.096C761.776 193.933 761.456 193.16 761.136 192.2C760.869 191.24 760.736 190.227 760.736 189.16C760.736 187.24 761.163 185.853 762.016 185C762.923 184.147 764.069 183.72 765.456 183.72H778.976C780.576 183.72 781.803 184.173 782.656 185.08C783.563 185.933 784.016 187.16 784.016 188.76V205.08Z" fill="white"/>
</g>
<defs>
<filter id="filter0_dd_423_4593" x="156.346" y="32" width="645.67" height="208.28" filterUnits="userSpaceOnUse" color-interpolation-filters="sRGB">
<feFlood flood-opacity="0" result="BackgroundImageFix"/>
<feColorMatrix in="SourceAlpha" type="matrix" values="0 0 0 0 0 0 0 0 0 0 0 0 0 0 0 0 0 0 127 0" result="hardAlpha"/>
<feOffset dy="4"/>
<feGaussianBlur stdDeviation="2"/>
<feColorMatrix type="matrix" values="0 0 0 0 0 0 0 0 0 0 0 0 0 0 0 0 0 0 0.3 0"/>
<feBlend mode="normal" in2="BackgroundImageFix" result="effect1_dropShadow_423_4593"/>
<feColorMatrix in="SourceAlpha" type="matrix" values="0 0 0 0 0 0 0 0 0 0 0 0 0 0 0 0 0 0 127 0" result="hardAlpha"/>
<feMorphology radius="6" operator="dilate" in="SourceAlpha" result="effect2_dropShadow_423_4593"/>
<feOffset dy="8"/>
<feGaussianBlur stdDeviation="6"/>
<feColorMatrix type="matrix" values="0 0 0 0 0 0 0 0 0 0 0 0 0 0 0 0 0 0 0.15 0"/>
<feBlend mode="normal" in2="effect1_dropShadow_423_4593" result="effect2_dropShadow_423_4593"/>
<feBlend mode="normal" in="SourceGraphic" in2="effect2_dropShadow_423_4593" result="shape"/>
</filter>
</defs>
</svg>
