<svg width="18" height="16" viewBox="0 0 18 16" fill="none" xmlns="http://www.w3.org/2000/svg">
<path d="M12.8799 0.123596H5.69576C2.57519 0.123596 0.714844 1.78786 0.714844 4.57952V10.9988C0.714844 13.7981 2.57519 15.4624 5.69576 15.4624H12.8714C15.9919 15.4624 17.8523 13.7981 17.8523 11.0065V4.57952C17.8609 1.78786 16.0005 0.123596 12.8799 0.123596ZM12.7171 8.3682H5.85865C5.50716 8.3682 5.21567 8.10744 5.21567 7.793C5.21567 7.47855 5.50716 7.21779 5.85865 7.21779H12.7171C13.0685 7.21779 13.36 7.47855 13.36 7.793C13.36 8.10744 13.0685 8.3682 12.7171 8.3682Z" fill="#292D32"/>
</svg>
